<?xml version="1.0" standalone="no"?>
<!DOCTYPE svg PUBLIC "-//W3C//DTD SVG 20010904//EN"
 "http://www.w3.org/TR/2001/REC-SVG-20010904/DTD/svg10.dtd">
<svg version="1.0" xmlns="http://www.w3.org/2000/svg"
 width="736.000000pt" height="736.000000pt" viewBox="0 0 736.000000 736.000000"
 preserveAspectRatio="xMidYMid meet">

<g transform="translate(0.000000,736.000000) scale(0.100000,-0.100000)"
fill="#000000" stroke="none">
<path d="M3555 6095 c-3 -8 -7 -22 -10 -31 -3 -8 0 -25 6 -36 8 -15 8 -22 -1
-28 -6 -4 -10 -20 -8 -36 3 -25 7 -29 33 -29 25 0 30 4 33 28 3 21 -2 29 -19
35 -19 7 -20 10 -6 15 17 6 23 50 11 81 -8 20 -33 21 -39 1z"/>
<path d="M3545 5897 c-2 -7 -6 -50 -9 -97 -11 -159 -26 -385 -31 -470 -3 -47
-7 -105 -10 -130 -3 -25 -8 -60 -10 -79 -2 -18 -6 -35 -8 -37 -2 -2 -39 14
-83 35 -128 64 -165 78 -241 91 -93 17 -145 4 -174 -43 -21 -35 -20 -101 2
-167 17 -50 76 -174 97 -201 10 -13 24 -37 32 -54 13 -26 84 -123 203 -278 40
-52 46 -74 22 -83 -8 -3 -17 -14 -20 -25 -4 -12 -16 -19 -31 -19 -23 0 -93 30
-118 51 -80 67 -212 168 -253 194 -29 19 -59 46 -69 60 -9 14 -21 25 -26 25
-6 0 -26 14 -45 31 -23 20 -42 29 -55 25 -17 -4 -19 -1 -15 19 3 19 0 24 -15
22 -10 -2 -24 -9 -31 -16 -10 -10 -8 -15 7 -25 23 -13 58 -48 89 -89 12 -16
28 -35 35 -42 6 -8 12 -18 12 -23 0 -4 12 -19 26 -33 14 -13 32 -39 40 -57 7
-19 26 -48 40 -65 15 -18 37 -54 49 -80 13 -26 26 -47 29 -45 8 4 29 -37 55
-108 24 -66 18 -79 -45 -109 -38 -18 -40 -38 -5 -43 36 -6 79 17 101 54 19 29
20 38 9 76 -6 24 -14 45 -18 48 -3 3 -15 22 -26 43 -11 20 -25 37 -31 37 -6 0
-16 18 -23 41 -7 22 -19 43 -27 46 -8 3 -14 11 -14 17 0 18 -24 66 -32 66 -5
0 -8 6 -8 13 0 7 -9 20 -20 30 -11 9 -20 24 -20 33 0 13 6 12 38 -7 20 -13 45
-33 55 -45 9 -13 34 -33 55 -46 20 -12 44 -30 52 -39 8 -9 46 -35 84 -58 117
-69 187 -53 230 51 23 53 21 70 -6 66 -17 -2 -31 8 -54 38 -18 23 -37 51 -43
62 -6 12 -25 36 -41 54 -17 18 -33 41 -36 50 -3 10 -10 18 -15 18 -5 0 -9 7
-9 16 0 9 -11 27 -25 40 -14 13 -25 32 -25 43 0 11 -8 25 -19 30 -13 7 -17 18
-14 36 4 19 1 25 -13 26 -11 0 -14 3 -6 6 20 8 14 26 -7 20 -26 -7 -56 55 -81
168 -6 27 1 55 15 55 8 0 15 4 15 9 0 5 11 8 25 7 30 -1 30 -2 7 -26 -14 -15
-18 -34 -17 -77 1 -33 7 -59 14 -61 8 -3 10 11 9 45 -4 72 25 92 140 94 43 1
123 -23 215 -64 l47 -22 -4 -55 c-10 -115 -16 -157 -28 -215 -14 -72 -17 -188
-4 -195 14 -7 25 39 41 170 8 63 23 176 34 251 11 74 25 207 31 294 6 87 12
161 15 165 2 4 5 58 6 121 1 62 4 120 8 129 5 14 21 -154 36 -385 7 -106 35
-348 59 -505 8 -52 18 -126 22 -165 7 -70 27 -135 42 -135 17 0 22 13 10 27
-6 8 -13 45 -15 81 -3 73 -6 105 -22 197 -12 70 -4 86 33 61 14 -9 30 -16 36
-16 22 0 8 21 -39 56 -49 36 -49 38 -56 105 -4 37 -8 80 -10 96 -21 203 -30
313 -40 498 -2 55 -8 136 -12 180 -3 44 -7 89 -7 100 -1 14 -9 20 -29 22 -15
1 -30 -3 -32 -10z m35 -99 c0 -39 -3 -68 -7 -64 -8 8 -13 116 -6 129 10 18 13
2 13 -65z"/>
<path d="M2518 5244 c-4 -3 -4 -13 -1 -21 3 -8 -5 -28 -17 -45 -20 -28 -21
-32 -6 -40 10 -5 16 -22 16 -42 0 -43 24 -66 39 -37 6 11 11 31 11 46 0 17 8
29 25 37 30 14 33 38 4 38 -26 0 -48 21 -46 45 2 18 -14 30 -25 19z"/>
<path d="M4705 5140 c-56 -7 -146 -35 -191 -58 -10 -5 -32 -15 -49 -22 -99
-41 -374 -204 -445 -264 -8 -7 -29 -21 -47 -31 l-31 -18 -50 41 c-50 42 -82
53 -82 29 0 -13 15 -28 69 -66 l33 -24 -28 -27 c-16 -14 -44 -35 -62 -45 -31
-19 -50 -50 -38 -62 7 -8 78 28 89 45 4 6 13 12 18 12 6 0 19 10 28 21 14 18
21 20 39 10 30 -16 45 -14 40 7 -4 14 8 27 47 50 29 18 56 32 59 32 3 0 17 11
32 25 15 14 35 25 44 25 10 0 20 7 24 15 3 8 10 15 16 15 6 0 39 20 73 44 34
23 87 51 117 62 30 10 64 28 75 40 15 16 28 21 48 17 16 -3 27 -1 27 6 0 7 9
9 23 6 15 -4 28 -1 36 9 10 12 17 13 33 3 17 -10 22 -9 26 2 4 11 6 11 13 0 7
-11 9 -10 9 3 0 21 27 13 32 -9 2 -10 17 -16 44 -18 37 -3 41 -1 36 17 -5 20
-47 42 -62 33 -4 -3 -11 2 -14 11 -4 10 -12 14 -22 10 -10 -4 -14 -1 -12 6 6
18 103 22 139 6 37 -17 63 -69 56 -117 -9 -60 -34 -136 -45 -136 -19 0 -25
-14 -12 -30 10 -12 9 -16 -3 -21 -9 -3 -13 -12 -10 -20 3 -9 -7 -28 -23 -45
-16 -16 -29 -40 -30 -52 -1 -22 -20 -57 -102 -184 -30 -46 -40 -69 -32 -77 15
-15 65 45 101 124 9 19 23 41 32 48 19 16 108 195 136 276 12 33 21 88 22 127
2 60 -1 73 -24 103 -35 45 -98 59 -202 46z m-30 -60 c-3 -5 -10 -10 -16 -10
-5 0 -9 5 -9 10 0 6 7 10 16 10 8 0 12 -4 9 -10z"/>
<path d="M2320 4993 c0 -21 -3 -55 -6 -75 -6 -34 -10 -39 -52 -50 -25 -7 -47
-18 -48 -23 -2 -6 19 -20 46 -33 39 -17 50 -28 50 -45 0 -13 6 -32 14 -43 14
-18 15 -18 24 6 5 14 11 34 13 45 4 21 37 41 82 50 15 3 27 12 27 19 0 15 -45
30 -60 21 -17 -11 -50 20 -60 55 -6 19 -10 52 -10 73 0 20 -4 37 -10 37 -5 0
-10 -17 -10 -37z"/>
<path d="M3060 4946 c0 -8 5 -18 10 -21 6 -3 10 1 10 9 0 8 -4 18 -10 21 -5 3
-10 -1 -10 -9z"/>
<path d="M2650 4800 c0 -5 5 -10 10 -10 6 0 10 5 10 10 0 6 -4 10 -10 10 -5 0
-10 -4 -10 -10z"/>
<path d="M3562 4801 c-8 -5 -12 -23 -10 -47 2 -31 7 -39 23 -39 17 0 20 7 20
44 0 45 -10 57 -33 42z"/>
<path d="M4480 4794 c0 -8 5 -12 10 -9 6 3 10 10 10 16 0 5 -4 9 -10 9 -5 0
-10 -7 -10 -16z"/>
<path d="M5270 4784 c-14 -36 -12 -51 6 -58 54 -21 93 10 74 58 -14 37 -66 37
-80 0z"/>
<path d="M4446 4746 c5 -21 3 -24 -14 -19 -13 3 -32 -6 -55 -26 -19 -17 -40
-31 -46 -31 -6 0 -18 -11 -26 -24 -9 -13 -34 -36 -55 -50 -37 -24 -50 -52 -33
-69 3 -4 15 0 25 10 26 23 34 8 16 -29 l-15 -33 -69 66 c-114 107 -154 136
-154 109 0 -12 85 -100 97 -100 5 0 33 -24 62 -54 51 -52 53 -54 32 -65 -11
-7 -21 -20 -21 -31 0 -10 -9 -21 -19 -25 -12 -3 -21 -19 -25 -40 -4 -19 -16
-39 -26 -45 -11 -6 -20 -17 -20 -25 0 -8 -6 -18 -13 -22 -14 -8 -31 -49 -42
-96 -11 -54 48 -117 110 -117 38 0 30 23 -21 59 -33 24 -43 38 -39 50 4 9 13
37 21 63 8 26 25 60 38 75 13 15 32 46 43 68 30 62 47 85 61 85 9 0 11 7 7 19
-4 13 1 27 12 39 44 45 74 84 70 88 -3 3 17 29 44 57 27 29 49 58 49 64 0 7 6
13 13 13 7 0 22 6 33 14 15 12 16 17 7 27 -7 7 -22 14 -33 16 -17 2 -19 -1
-14 -21z"/>
<path d="M2320 4681 c0 -20 13 -35 23 -25 7 8 -4 44 -14 44 -5 0 -9 -9 -9 -19z"/>
<path d="M3541 4674 c-12 -15 -21 -34 -21 -43 0 -9 -3 -26 -6 -39 -5 -18 -3
-21 10 -16 25 10 19 -12 -10 -35 -14 -11 -26 -30 -26 -43 -1 -13 -7 -31 -14
-42 -7 -10 -10 -25 -7 -32 3 -8 1 -14 -5 -14 -5 0 -17 -25 -27 -56 -15 -47
-16 -63 -6 -96 10 -33 15 -38 27 -27 13 11 13 14 1 27 -13 12 -12 17 4 33 11
11 24 17 29 14 6 -4 23 3 38 15 30 24 49 99 28 112 -16 11 9 32 28 25 18 -7
22 -27 6 -27 -5 0 -10 -18 -10 -39 0 -34 5 -44 35 -66 19 -15 39 -24 44 -21 5
4 13 0 18 -7 4 -8 21 -17 37 -21 23 -6 27 -4 23 8 -3 8 -11 33 -17 56 -6 23
-19 49 -28 58 -10 10 -16 26 -14 36 2 10 -1 23 -7 29 -6 6 -11 23 -11 37 0 18
-8 31 -25 40 -27 14 -35 43 -10 34 18 -7 18 -1 4 51 -12 44 -35 75 -55 75 -7
0 -22 -12 -33 -26z m36 -96 c-3 -7 -5 -2 -5 12 0 14 2 19 5 13 2 -7 2 -19 0
-25z"/>
<path d="M3400 4515 c0 -8 7 -15 15 -15 8 0 15 7 15 15 0 8 -7 15 -15 15 -8 0
-15 -7 -15 -15z"/>
<path d="M4038 4437 c-141 -108 -178 -119 -219 -64 -13 17 -29 44 -36 60 -13
28 -43 38 -43 13 0 -24 19 -68 47 -108 24 -36 29 -38 77 -38 41 0 63 7 113 38
33 20 80 53 103 72 23 18 51 39 63 45 12 6 23 18 25 28 7 37 -46 18 -130 -46z"/>
<path d="M4300 4390 c0 -6 11 -23 25 -38 20 -21 27 -24 37 -13 11 10 8 17 -15
37 -30 26 -47 31 -47 14z"/>
<path d="M4575 4359 c-25 -30 -26 -31 -32 -10 -3 12 -13 21 -24 21 -14 0 -19
-7 -19 -30 0 -16 5 -30 10 -30 15 0 12 -12 -9 -39 -17 -23 -19 -23 -44 -7 -32
21 -47 4 -21 -25 16 -18 16 -19 -5 -19 -24 0 -41 -28 -23 -39 14 -9 -8 -81
-25 -81 -7 0 -13 -6 -13 -14 0 -7 -9 -16 -20 -19 -25 -6 -27 -27 -2 -26 9 0
41 29 71 65 30 35 58 64 62 64 10 0 23 -49 27 -107 1 -13 8 -23 16 -23 19 0
29 31 20 65 -9 36 23 65 71 65 23 0 38 5 42 16 9 23 -16 36 -59 30 -27 -3 -38
0 -44 13 -13 29 -3 53 37 94 21 23 39 47 39 54 0 23 -28 14 -55 -18z"/>
<path d="M3087 4296 c-7 -18 20 -56 39 -56 10 0 13 -10 11 -41 -2 -22 0 -42 4
-45 13 -8 -3 -49 -33 -80 -16 -17 -37 -46 -47 -65 -10 -19 -27 -36 -37 -38
-11 -2 -22 -8 -25 -14 -9 -13 -80 -37 -92 -30 -5 3 -19 1 -30 -5 -31 -15 -115
-31 -136 -25 -23 6 -36 -13 -22 -31 6 -7 8 -16 4 -19 -12 -13 -23 -7 -23 12 0
28 -10 31 -69 24 -35 -4 -51 -10 -51 -20 0 -12 -3 -12 -16 1 -17 18 -34 13
-34 -10 0 -8 11 -14 28 -15 15 0 38 -3 52 -5 14 -3 48 -6 76 -8 28 -2 77 -9
108 -16 30 -6 60 -9 65 -6 5 4 16 -2 23 -11 9 -13 27 -19 62 -19 34 -1 51 -6
58 -17 5 -10 15 -17 22 -17 16 0 47 -33 50 -54 1 -9 17 -30 35 -46 32 -30 36
-46 31 -122 -2 -25 -9 -40 -20 -43 -9 -3 -22 -17 -28 -31 -15 -32 -15 -31 4
-38 11 -4 22 1 31 14 8 12 25 26 37 31 44 19 101 57 101 67 0 19 14 25 30 12
9 -7 27 -10 45 -7 16 4 32 2 35 -3 3 -6 9 -10 13 -10 10 0 14 50 4 51 -4 1
-29 3 -57 5 -27 3 -53 10 -57 17 -5 8 -8 8 -8 1 0 -19 -33 -27 -45 -11 -5 7
-23 17 -38 21 -16 4 -25 11 -21 17 6 10 -1 30 -27 81 -5 10 -9 24 -9 31 0 8
-9 22 -20 32 -11 10 -20 24 -20 31 0 7 -14 18 -30 26 -20 8 -29 19 -27 29 3 9
0 24 -5 33 -7 12 -5 16 7 16 21 0 67 35 58 44 -4 4 3 13 15 22 12 8 22 24 22
34 0 10 5 22 10 25 6 3 10 14 10 24 0 10 6 24 14 31 8 6 12 18 9 26 -3 8 5 17
21 24 15 5 29 17 32 25 4 11 10 12 18 6 7 -6 42 -8 84 -4 67 6 72 7 72 29 0
24 -14 32 -25 15 -3 -6 -18 -6 -37 0 -25 7 -36 5 -52 -9 -18 -16 -19 -16 -13
1 5 13 0 20 -17 27 -13 5 -27 14 -31 20 -3 5 -11 8 -16 5 -5 -4 -12 1 -15 9
-3 9 -11 16 -16 16 -6 0 -23 11 -40 25 -34 29 -44 31 -51 11z m123 -92 c0 -8
-4 -12 -10 -9 -5 3 -10 10 -10 16 0 5 5 9 10 9 6 0 10 -7 10 -16z m-267 -334
c-7 -25 -19 -34 -28 -19 -5 8 18 36 32 39 0 0 -1 -9 -4 -20z"/>
<path d="M3992 4272 c-31 -27 -41 -42 -37 -55 4 -9 3 -17 -3 -17 -6 0 -12 -6
-15 -12 -2 -7 -2 -1 0 15 6 34 -6 34 -41 2 -28 -26 -46 -32 -46 -16 0 6 -12 6
-32 0 -21 -5 -36 -5 -42 1 -16 16 -21 12 -24 -14 -1 -16 5 -25 18 -29 11 -3
22 -1 25 3 3 5 27 3 52 -5 41 -13 49 -12 64 1 15 13 17 13 22 -6 3 -12 13 -20
27 -20 17 0 21 -4 17 -20 -3 -10 1 -24 9 -31 8 -6 14 -18 14 -25 0 -8 4 -22 9
-32 5 -9 12 -24 16 -32 21 -52 65 -97 84 -86 4 3 8 -12 8 -34 0 -32 -3 -40
-18 -40 -11 0 -19 -4 -19 -10 0 -5 -7 -10 -15 -10 -8 0 -15 -6 -15 -14 0 -8
-7 -16 -15 -20 -8 -3 -15 -16 -15 -28 0 -16 -18 -40 -57 -75 -52 -47 -57 -54
-46 -72 12 -20 3 -38 -11 -23 -10 9 -106 9 -106 0 0 -4 -6 -5 -12 -3 -20 7
-42 -11 -35 -29 4 -9 13 -13 21 -10 31 12 25 -19 -11 -52 l-38 -35 -10 31 c-8
24 -13 28 -23 18 -15 -15 -16 -38 -2 -38 6 0 10 -4 10 -10 0 -5 -7 -10 -16
-10 -9 0 -32 -13 -51 -30 -18 -16 -38 -30 -43 -30 -6 0 -10 -16 -10 -36 0 -21
-4 -33 -10 -29 -5 3 -10 17 -10 31 0 28 -54 81 -77 76 -7 -2 -13 2 -13 8 0 5
-14 10 -30 10 -28 0 -30 -2 -20 -21 7 -11 9 -23 7 -26 -3 -2 1 -16 8 -30 8
-15 12 -30 9 -35 -3 -4 2 -8 11 -8 9 0 15 -6 14 -12 -9 -45 32 -142 57 -138 5
1 10 -3 12 -9 2 -6 -6 -11 -17 -11 -22 0 -28 -14 -11 -25 6 -3 10 -15 10 -25
0 -32 21 -68 44 -75 19 -6 19 -8 3 -12 -14 -4 -17 -13 -15 -46 2 -34 7 -42 23
-42 17 0 20 7 20 51 0 28 6 58 12 66 7 8 14 29 16 46 2 18 7 35 10 39 12 11 7
23 -9 23 -22 0 -12 23 14 35 15 7 22 19 22 37 0 16 4 28 9 28 4 0 14 21 21 48
17 70 36 100 112 176 37 38 68 73 68 78 0 5 5 6 10 3 8 -5 7 -11 -1 -21 -9
-11 -8 -14 4 -14 8 0 20 -7 27 -15 17 -21 30 -19 30 6 0 11 5 17 10 14 6 -4 8
-11 5 -16 -9 -14 5 -49 19 -49 7 0 23 -11 36 -25 27 -29 45 -32 54 -9 4 9 -6
26 -25 44 -26 24 -31 34 -27 64 2 20 0 36 -4 36 -17 0 6 53 33 80 16 15 29 34
29 42 0 9 9 18 20 21 12 3 20 14 20 25 0 15 5 19 20 15 13 -4 20 0 20 9 0 16
81 41 105 32 8 -4 15 -1 15 6 0 8 9 11 25 8 14 -3 25 -2 25 2 0 7 65 18 155
26 22 2 51 6 65 8 14 2 35 5 48 5 12 1 22 7 22 15 0 17 -68 30 -280 52 -30 3
-50 11 -61 25 -14 18 -19 19 -36 8 -17 -10 -27 -10 -52 1 -17 7 -31 16 -31 21
0 5 -8 9 -18 9 -20 0 -62 39 -62 58 0 7 -13 26 -29 42 -31 30 -35 44 -33 121
2 38 6 48 27 59 16 8 25 22 25 37 0 32 -18 28 -68 -15z m232 -433 c-21 -24
-29 -18 -14 10 6 12 16 19 21 15 6 -4 4 -13 -7 -25z m221 21 c3 -5 1 -10 -4
-10 -6 0 -11 5 -11 10 0 6 2 10 4 10 3 0 8 -4 11 -10z m-467 -252 c-3 -7 -13
-15 -24 -17 -16 -3 -17 -1 -5 13 16 19 34 21 29 4z m-398 -338 c0 -5 -7 -10
-15 -10 -8 0 -15 5 -15 10 0 6 7 10 15 10 8 0 15 -4 15 -10z"/>
<path d="M3686 4254 c-8 -21 -8 -21 10 -28 8 -3 12 -2 9 4 -3 6 -1 10 4 10 6
0 11 7 11 15 0 20 -26 19 -34 -1z"/>
<path d="M4630 4040 c0 -10 10 -25 23 -31 21 -11 37 -28 37 -39 0 -9 -133 1
-152 11 -25 13 -116 21 -122 10 -11 -17 20 -28 144 -54 104 -22 127 -24 135
-13 9 11 17 7 43 -20 18 -18 32 -36 32 -40 0 -3 14 -22 30 -41 17 -18 30 -40
30 -48 0 -8 6 -18 14 -22 20 -12 126 -171 126 -189 0 -9 10 -29 21 -46 31 -43
34 -129 7 -185 -11 -24 -25 -44 -31 -44 -7 -1 -27 -3 -45 -5 -36 -2 -49 -10
-39 -20 4 -4 28 -2 55 3 l49 10 -11 -29 c-9 -25 -14 -28 -41 -23 -56 12 -115
38 -115 51 0 8 -10 14 -24 14 -13 0 -26 4 -28 10 -1 5 -26 18 -55 28 -28 10
-58 24 -66 30 -8 7 -19 11 -24 10 -13 -4 -197 105 -250 148 -23 19 -46 34 -51
34 -5 0 -17 9 -27 20 -10 11 -24 20 -32 20 -29 0 -10 -28 43 -66 30 -21 70
-50 89 -64 44 -33 201 -132 234 -147 14 -7 33 -17 41 -22 38 -23 167 -74 218
-87 76 -18 114 -17 156 3 68 32 73 116 16 258 -37 90 -147 279 -191 326 -16
17 -29 33 -29 36 0 6 -52 73 -124 161 -61 73 -86 88 -86 52z"/>
<path d="M2825 4028 c-22 -5 -56 -11 -75 -14 -19 -3 -44 -9 -55 -14 -28 -12
-76 -20 -175 -30 -47 -4 -110 -13 -140 -19 -30 -7 -93 -14 -140 -16 -47 -2
-105 -9 -130 -14 -25 -5 -105 -9 -179 -10 -74 -1 -137 -4 -140 -6 -3 -1 -49
-6 -101 -9 -121 -8 -160 -16 -160 -29 0 -6 -6 -3 -12 6 -10 13 -20 15 -43 9
-16 -5 -52 -7 -80 -5 -27 1 -65 0 -82 -3 -41 -6 -45 -33 -5 -36 74 -4 108 -3
119 5 6 4 14 3 18 -3 9 -15 75 -13 75 3 0 8 3 9 8 1 9 -13 215 -35 377 -40 66
-2 163 -8 215 -14 52 -6 140 -15 195 -20 135 -14 236 -28 320 -46 39 -9 90
-19 114 -23 23 -5 46 -13 50 -19 6 -10 78 -9 89 3 12 11 -17 27 -74 39 -33 7
-113 25 -179 40 -118 26 -273 49 -410 61 -182 15 -339 24 -430 26 l-100 2 115
8 c63 4 142 8 175 9 218 7 642 65 762 106 24 7 57 16 75 19 54 9 68 16 68 31
0 16 -7 16 -65 2z"/>
<path d="M4825 3931 c-32 -32 121 -54 455 -67 91 -3 167 -8 169 -10 2 -2 -38
-4 -90 -4 -52 0 -157 -5 -234 -11 -77 -5 -161 -12 -186 -13 -59 -4 -74 -13
-58 -32 14 -16 74 -18 149 -4 28 5 111 11 183 12 73 1 150 5 172 9 63 11 205
22 262 20 28 0 55 4 58 9 4 7 11 7 18 2 11 -8 27 -8 115 -4 20 1 32 7 32 16 0
17 -54 27 -120 22 -25 -1 -60 1 -78 5 -17 4 -34 3 -37 -2 -3 -4 -16 -4 -28 0
-12 5 -40 9 -62 10 -22 1 -58 3 -80 5 -87 8 -206 16 -324 21 -68 3 -128 8
-135 12 -12 8 -174 12 -181 4z"/>
<path d="M4715 3803 c-112 -15 -434 -89 -449 -103 -19 -19 4 -28 46 -18 24 5
63 13 88 18 25 5 72 15 105 24 33 8 80 15 105 16 25 0 72 7 103 15 32 8 63 14
70 12 6 -1 12 7 12 18 0 21 -22 26 -80 18z"/>
<path d="M2982 3679 c-29 -11 -23 -22 28 -50 58 -33 58 -34 7 -151 -11 -27
-24 -48 -28 -48 -5 0 -19 -24 -33 -53 -13 -30 -38 -69 -55 -87 -17 -19 -33
-46 -36 -61 -4 -15 -19 -38 -36 -51 -16 -13 -29 -29 -29 -36 0 -7 -9 -23 -21
-35 -11 -12 -30 -35 -42 -50 -24 -31 -29 -37 -67 -67 -25 -20 -25 -20 -5 -35
25 -19 41 -14 38 13 -2 15 2 20 12 16 8 -3 31 8 52 25 21 17 42 31 47 31 5 0
21 14 35 31 14 17 49 47 78 67 80 57 216 160 238 181 25 23 90 51 117 51 23 0
50 -28 78 -82 21 -39 50 -51 50 -20 -1 29 -38 101 -66 127 -23 21 -32 23 -73
18 -69 -9 -200 -92 -318 -200 -44 -41 -73 -54 -73 -34 0 5 7 17 17 26 9 9 29
43 45 76 16 32 33 59 38 59 6 0 10 7 10 15 0 21 21 57 43 73 9 7 17 20 17 28
0 8 3 14 8 14 7 0 37 60 47 97 15 52 -72 131 -123 112z"/>
<path d="M4114 3674 c-49 -20 -77 -61 -69 -104 8 -49 57 -142 77 -147 9 -3 19
-20 22 -39 4 -18 16 -38 26 -44 11 -6 20 -20 20 -30 0 -11 3 -20 8 -20 4 0 13
-15 21 -32 8 -18 22 -41 33 -51 19 -19 24 -37 9 -37 -20 0 -81 43 -81 56 0 8
-15 21 -33 29 -18 7 -44 24 -57 38 -40 39 -162 117 -184 118 -12 0 -33 2 -49
4 -38 5 -81 -34 -101 -92 -20 -58 -20 -73 -1 -73 9 0 23 17 33 37 38 81 76 99
138 65 49 -27 154 -101 179 -128 19 -19 100 -80 137 -103 20 -12 48 -35 62
-52 14 -16 29 -29 34 -29 4 0 24 -14 43 -31 20 -18 41 -28 52 -25 14 3 17 -1
15 -17 -2 -17 1 -21 17 -19 11 2 24 8 29 12 12 12 -12 40 -34 40 -10 0 -20 10
-24 23 -3 12 -23 40 -45 62 -22 22 -40 45 -41 51 0 6 -12 21 -26 35 -14 13
-34 42 -44 65 -11 22 -26 47 -35 54 -9 8 -30 41 -47 74 -17 34 -34 62 -39 64
-19 7 -71 146 -63 167 3 6 23 22 44 34 64 36 42 73 -26 45z"/>
<path d="M2644 3518 c-17 -18 -52 -64 -80 -101 -27 -38 -67 -92 -90 -120 -100
-128 -224 -351 -269 -482 -26 -78 -30 -163 -8 -204 31 -59 62 -75 150 -74 97
0 187 29 363 117 125 63 223 122 357 216 39 27 76 50 82 50 6 0 16 9 23 20 7
11 18 20 24 20 6 0 19 9 29 20 10 11 24 20 31 20 7 0 14 4 16 9 4 11 141 121
151 121 4 0 7 9 7 20 0 28 -17 25 -59 -12 -64 -56 -133 -108 -192 -143 -9 -6
-35 -26 -58 -44 -42 -34 -195 -136 -221 -148 -8 -3 -28 -16 -45 -28 -16 -12
-82 -47 -145 -79 -101 -50 -124 -58 -193 -63 -51 -4 -81 -11 -84 -19 -4 -10
-15 -6 -41 14 -61 45 -72 56 -72 69 0 6 -7 19 -16 28 -13 12 -15 25 -9 58 4
23 9 58 10 77 5 48 4 47 16 28 13 -24 44 -24 35 -1 -4 9 -1 20 6 25 10 7 8 13
-9 25 -30 20 -29 31 1 26 23 -5 24 -2 22 31 -2 20 1 36 5 36 5 0 9 7 9 15 0 8
4 15 10 15 15 0 42 67 35 89 -5 16 -2 21 12 21 18 0 53 59 53 88 0 7 7 12 15
12 8 0 22 15 31 33 9 17 32 52 51 76 18 24 33 49 33 55 0 6 16 29 35 51 57 65
37 95 -21 33z"/>
<path d="M3436 3474 c-8 -21 -1 -28 19 -20 9 3 15 11 13 18 -7 19 -25 20 -32
2z"/>
<path d="M3715 3199 c-4 -6 -4 -13 -1 -16 8 -8 36 5 36 17 0 13 -27 13 -35 -1z"/>
<path d="M3701 3142 c-6 -11 -15 -57 -21 -103 -5 -46 -21 -163 -34 -259 -23
-167 -30 -226 -41 -385 -3 -38 -10 -126 -15 -195 -5 -69 -10 -140 -10 -159 0
-19 -3 -32 -6 -28 -3 3 -10 68 -15 144 -23 359 -31 448 -59 643 -16 115 -30
223 -30 240 0 19 -6 33 -16 37 -30 11 -35 -11 -19 -93 8 -43 15 -100 15 -126
0 -26 5 -50 10 -53 6 -3 10 -28 10 -55 0 -27 6 -100 14 -162 8 -62 17 -162 21
-223 4 -60 8 -126 11 -145 2 -19 6 -80 9 -135 7 -141 17 -269 21 -277 3 -4 17
-6 32 -5 19 2 27 8 28 22 0 11 4 54 8 95 3 41 9 122 11 180 6 121 10 190 20
310 7 98 9 111 29 280 9 69 18 156 22 195 3 38 9 76 14 85 12 24 21 164 11
179 -7 11 -11 10 -20 -7z m-121 -1228 c0 -41 -4 -73 -8 -70 -4 2 -7 17 -6 33
1 15 2 47 3 71 2 72 11 46 11 -34z"/>
<path d="M2650 2915 c0 -8 5 -15 10 -15 6 0 10 7 10 15 0 8 -4 15 -10 15 -5 0
-10 -7 -10 -15z"/>
<path d="M4480 2915 c0 -9 5 -15 11 -13 6 2 11 8 11 13 0 5 -5 11 -11 13 -6 2
-11 -4 -11 -13z"/>
<path d="M2334 2838 c-4 -5 -1 -14 7 -18 14 -9 29 -4 29 10 0 13 -29 20 -36 8z"/>
<path d="M2360 2781 c0 -11 39 -41 52 -41 14 0 8 23 -9 36 -21 16 -43 18 -43
5z"/>
<path d="M4135 2458 c-11 -51 -41 -85 -82 -95 -46 -11 -51 -37 -8 -41 37 -5
67 -35 80 -82 15 -49 39 -46 43 5 3 44 31 74 69 75 12 0 25 5 28 10 12 20 -17
40 -56 40 -39 0 -39 0 -40 43 -1 23 -1 50 0 60 4 31 -27 18 -34 -15z"/>
<path d="M3562 1782 c-19 -3 -23 -9 -20 -35 3 -28 7 -32 33 -32 25 0 31 4 33
26 4 30 -14 46 -46 41z"/>
<path d="M3546 1692 c-10 -16 6 -84 21 -89 21 -8 34 16 31 57 -2 27 -8 36 -25
38 -11 2 -24 -1 -27 -6z"/>
<path d="M3207 1672 c-22 -24 -21 -55 1 -75 50 -46 114 13 82 74 -14 25 -61
25 -83 1z"/>
</g>
</svg>
